# Blender v2.79 (sub 0) OBJ File: ''
# www.blender.org
mtllib PLACEHOLDER_PLAYER_OBJ.mtl
o Cube.001
v 0.000000 1.000000 -2.000000
v -1.000000 1.000000 0.000000
v 0.000000 2.000000 -0.250000
v 0.000000 2.000000 -0.250000
v 1.000000 1.000000 -0.000000
v 0.000000 2.000000 -0.250000
v 0.000000 1.000000 1.000000
v 0.000000 0.000000 0.000000
v 0.000000 2.000000 -0.250000
vt 0.005771 0.005003
vt 0.002519 0.002564
vt 0.004880 0.001449
vt 0.004860 0.008597
vt 0.002519 0.007442
vt 0.004880 0.008557
vt 0.004839 0.008638
vt 0.002268 0.009999
vt 0.004861 0.001407
vt 0.002313 0.000001
vt 0.000001 0.006926
vt 0.001706 0.005003
vt 0.000001 0.003079
vn -0.7044 0.6163 -0.3522
vn 0.7044 0.6163 -0.3522
vn 0.5298 0.6623 0.5298
vn -0.5298 0.6623 0.5298
vn 0.5774 -0.5774 0.5774
vn -0.5774 -0.5774 0.5774
vn -0.6667 -0.6667 -0.3333
vn 0.6667 -0.6667 -0.3333
usemtl Material.002
s 1
f 1/1/1 2/2/1 3/3/1
f 4/4/2 5/5/2 1/1/2 3/6/2
f 6/7/3 7/8/3 5/5/3 4/4/3
f 6/9/4 3/3/4 2/2/4 7/10/4
f 7/11/5 8/12/5 5/5/5
f 7/13/6 2/2/6 8/12/6
f 1/1/7 8/12/7 2/2/7
f 5/5/8 8/12/8 1/1/8
