# Blender v2.79 (sub 0) OBJ File: ''
# www.blender.org
mtllib car-wash.mtl
o Cube.002_Cube.002
v -2.000000 1.446250 -0.800000
v -2.000000 0.000000 -1.000000
v -2.000000 0.000000 -0.800000
v 2.000000 2.080000 -1.000000
v -2.000000 1.950000 -1.000000
v 2.000000 1.950000 -1.000000
v -2.100000 2.080000 1.100000
v -2.100000 1.755000 -1.100000
v -2.100000 1.755000 1.100000
v 2.000000 1.950000 1.000000
v -2.000000 2.080000 1.000000
v -2.000000 1.950000 1.000000
v -2.000000 2.080000 -1.000000
v 2.100000 2.080000 -1.100000
v -2.100000 2.080000 -1.100000
v 2.000000 1.446250 0.800000
v 2.000000 -0.000000 1.000000
v 2.000000 -0.000000 0.800000
v 2.100000 2.080000 1.100000
v -2.000000 1.755000 -1.000000
v -2.000000 1.755000 1.000000
v -2.000000 -0.000000 1.000000
v 1.660000 0.460687 1.000000
v -1.670600 0.460687 1.000000
v 2.100000 1.755000 -1.100000
v 2.000000 1.755000 -1.000000
v -2.000000 1.446250 0.800000
v -1.950000 -0.000000 0.800000
v -2.000000 -0.000000 0.800000
v 1.950000 1.446250 -0.800000
v 1.950000 -0.000000 0.800000
v 1.950000 0.000000 -0.800000
v 2.100000 1.755000 1.100000
v 2.000000 1.755000 1.000000
v 2.000000 1.446250 -0.800000
v -1.670600 0.460688 -1.000000
v 1.660000 0.460688 -0.950000
v 1.660000 0.460688 -1.000000
v 2.000000 0.000000 -0.800000
v -1.670600 1.446250 1.000000
v 1.660000 1.446250 0.950000
v 1.660000 1.446250 1.000000
v -1.670600 1.446250 -0.950000
v 1.660000 1.446250 -0.950000
v -1.670600 1.446250 -1.000000
v -1.670600 0.460688 -0.950000
v 1.660000 1.446250 -1.000000
v 1.660000 0.460687 0.950000
v -1.670600 1.446250 0.950000
v -1.670600 0.460687 0.950000
v -1.950000 1.446250 0.800000
v -1.950000 0.000000 -0.800000
v 2.000000 0.000000 -1.000000
v 2.000000 2.080000 1.000000
v 1.950000 1.446250 0.800000
v -1.950000 1.446250 -0.800000
vt 0.082993 0.221070
vt 0.200029 0.200030
vt 0.200029 0.221070
vt 0.620834 0.010668
vt 0.200029 0.000148
vt 0.620834 0.000148
vt 0.021188 0.420952
vt 0.047488 0.189510
vt 0.047488 0.420952
vt 0.820715 0.410432
vt 0.810195 0.200030
vt 0.820715 0.200030
vt 0.000148 0.200031
vt 0.010668 0.410433
vt 0.000148 0.410433
vt 0.200029 0.010668
vt 0.631354 0.021188
vt 0.189509 0.021188
vt 0.737870 0.389392
vt 0.620833 0.410432
vt 0.620833 0.389392
vt 0.010668 0.200031
vt 0.200029 0.599794
vt 0.620834 0.610313
vt 0.200029 0.610314
vt 0.200030 0.820716
vt 0.620834 0.820715
vt 0.189509 0.562973
vt 0.631354 0.589274
vt 0.189509 0.589274
vt 0.189509 0.047488
vt 0.058008 0.200030
vt 0.058008 0.410432
vt 0.200029 0.410432
vt 0.585065 0.447712
vt 0.234683 0.447713
vt 0.200029 0.058008
vt 0.631354 0.047488
vt 0.620833 0.058008
vt 0.821011 0.005408
vt 0.826271 0.122444
vt 0.821011 0.122444
vt 0.896127 0.938048
vt 0.727805 0.821011
vt 0.896127 0.821011
vt 0.799675 0.420952
vt 0.773375 0.189510
vt 0.799675 0.189510
vt 0.631354 0.562973
vt 0.200029 0.552453
vt 0.620834 0.552453
vt 0.727805 0.943308
vt 0.896127 0.943308
vt 0.366607 0.911287
vt 0.716990 0.906027
vt 0.716990 0.911287
vt 0.722546 0.938048
vt 0.722545 0.821011
vt 0.082993 0.389392
vt 0.901387 0.938048
vt 0.901387 0.821011
vt 0.200029 0.389392
vt 0.205289 0.389392
vt 0.005408 0.911287
vt 0.355791 0.906027
vt 0.355791 0.911287
vt 0.366607 0.826271
vt 0.716990 0.826272
vt 0.361347 0.826271
vt 0.366607 0.906027
vt 0.361346 0.906027
vt 0.722250 0.906027
vt 0.722250 0.826272
vt 0.716990 0.821011
vt 0.366607 0.821011
vt 0.355791 0.826272
vt 0.005408 0.906027
vt 0.005408 0.826271
vt 0.000148 0.826271
vt 0.000148 0.906027
vt 0.361051 0.906027
vt 0.361051 0.826272
vt 0.355791 0.821011
vt 0.005408 0.821011
vt 0.826271 0.005408
vt 0.994592 0.122444
vt 0.994592 0.000148
vt 0.826271 0.000148
vt 0.999852 0.005408
vt 0.999852 0.122444
vt 0.205289 0.221070
vt 0.615573 0.221070
vt 0.620833 0.200030
vt 0.620833 0.221070
vt 0.615573 0.389392
vt 0.762855 0.410432
vt 0.762855 0.200030
vt 0.620834 0.599794
vt 0.234682 0.162749
vt 0.737870 0.221070
vt 0.585065 0.162749
vt 0.585065 0.082994
vt 0.585065 0.527468
vt 0.234683 0.527468
vt 0.021188 0.189510
vt 0.810194 0.410432
vt 0.727805 0.938048
vt 0.773374 0.420952
vt 0.994592 0.005408
vt 0.234682 0.082994
vn -1.0000 -0.0000 0.0000
vn 0.0000 -0.0000 1.0000
vn 1.0000 0.0000 0.0000
vn -0.0000 1.0000 -0.0000
vn 0.0000 0.0000 -1.0000
vn 0.0000 -1.0000 -0.0000
usemtl None.004
s 1
f 1/1/1 2/2/1 3/3/1
f 4/4/2 5/5/2 6/6/2
f 7/7/1 8/8/1 9/9/1
f 10/10/1 4/11/1 6/12/1
f 5/13/3 11/14/3 12/15/3
f 13/16/4 14/17/4 15/18/4
f 16/19/3 17/20/3 18/21/3
f 13/22/4 7/7/4 11/14/4
f 11/23/5 10/24/5 12/25/5
f 5/26/4 10/24/4 6/27/4
f 9/28/2 19/29/2 7/30/2
f 14/17/5 8/31/5 15/18/5
f 9/9/6 20/32/6 21/33/6
f 22/34/2 23/35/2 24/36/2
f 20/37/6 25/38/6 26/39/6
f 27/40/5 28/41/5 29/42/5
f 30/43/3 31/44/3 32/45/3
f 19/46/3 25/47/3 14/48/3
f 33/49/6 21/50/6 34/51/6
f 16/52/6 30/43/6 35/53/6
f 36/54/4 37/55/4 38/56/4
f 31/44/5 16/57/5 18/58/5
f 27/59/1 22/34/1 21/33/1
f 35/60/2 32/45/2 39/61/2
f 29/62/6 28/63/6 22/34/6
f 40/64/6 41/65/6 42/66/6
f 37/55/5 43/67/5 44/68/5
f 45/69/3 46/70/3 36/71/3
f 38/72/1 44/68/1 47/73/1
f 47/74/6 43/67/6 45/75/6
f 48/76/2 49/77/2 50/78/2
f 24/79/3 49/77/3 40/80/3
f 42/81/1 48/76/1 23/82/1
f 23/83/4 50/78/4 24/84/4
f 28/63/6 17/20/6 22/34/6
f 51/85/1 52/86/1 28/41/1
f 1/87/6 51/85/6 27/88/6
f 52/86/2 1/89/2 3/90/2
f 2/2/6 52/91/6 3/3/6
f 32/92/6 53/93/6 39/94/6
f 17/20/6 31/95/6 18/21/6
f 28/63/6 32/92/6 31/95/6
f 52/91/6 53/93/6 32/92/6
f 25/47/6 34/96/6 26/97/6
f 54/98/4 7/30/4 19/29/4
f 4/11/4 19/46/4 14/48/4
f 20/37/5 36/99/5 2/2/5
f 35/100/3 53/93/3 26/97/3
f 16/19/3 26/97/3 34/96/3
f 38/101/5 26/39/5 53/93/5
f 47/102/5 20/37/5 26/39/5
f 21/33/1 1/1/1 27/59/1
f 2/2/5 38/101/5 53/93/5
f 23/35/2 34/51/2 42/103/2
f 24/36/2 21/50/2 22/34/2
f 42/103/2 21/50/2 40/104/2
f 1/1/1 20/32/1 2/2/1
f 4/4/2 13/16/2 5/5/2
f 7/7/1 15/105/1 8/8/1
f 10/10/1 54/106/1 4/11/1
f 5/13/3 13/22/3 11/14/3
f 13/16/4 4/4/4 14/17/4
f 16/19/3 34/96/3 17/20/3
f 13/22/4 15/105/4 7/7/4
f 11/23/5 54/98/5 10/24/5
f 5/26/4 12/25/4 10/24/4
f 9/28/2 33/49/2 19/29/2
f 14/17/5 25/38/5 8/31/5
f 9/9/6 8/8/6 20/32/6
f 22/34/2 17/20/2 23/35/2
f 20/37/6 8/31/6 25/38/6
f 27/40/5 51/85/5 28/41/5
f 30/43/3 55/107/3 31/44/3
f 19/46/3 33/108/3 25/47/3
f 33/49/6 9/28/6 21/50/6
f 16/52/6 55/107/6 30/43/6
f 36/54/4 46/70/4 37/55/4
f 31/44/5 55/107/5 16/57/5
f 27/59/1 29/62/1 22/34/1
f 35/60/2 30/43/2 32/45/2
f 40/64/6 49/77/6 41/65/6
f 37/55/5 46/70/5 43/67/5
f 45/69/3 43/67/3 46/70/3
f 38/72/1 37/55/1 44/68/1
f 47/74/6 44/68/6 43/67/6
f 48/76/2 41/65/2 49/77/2
f 24/79/3 50/78/3 49/77/3
f 42/81/1 41/65/1 48/76/1
f 23/83/4 48/76/4 50/78/4
f 28/63/6 31/95/6 17/20/6
f 51/85/1 56/109/1 52/86/1
f 1/87/6 56/109/6 51/85/6
f 52/86/2 56/109/2 1/89/2
f 28/63/6 52/91/6 32/92/6
f 52/91/6 2/2/6 53/93/6
f 25/47/6 33/108/6 34/96/6
f 54/98/4 11/23/4 7/30/4
f 4/11/4 54/106/4 19/46/4
f 20/37/5 45/110/5 36/99/5
f 35/100/3 39/94/3 53/93/3
f 16/19/3 35/100/3 26/97/3
f 38/101/5 47/102/5 26/39/5
f 47/102/5 45/110/5 20/37/5
f 21/33/1 20/32/1 1/1/1
f 2/2/5 36/99/5 38/101/5
f 23/35/2 17/20/2 34/51/2
f 24/36/2 40/104/2 21/50/2
f 42/103/2 34/51/2 21/50/2
