# Blender v2.79 (sub 0) OBJ File: ''
# www.blender.org
mtllib EXPLOSION_HITBOX.mtl
o Circle
v 0.000000 0.000000 -5.050000
v -1.932552 0.000000 -4.665592
v -3.570889 0.000000 -3.570889
v -4.665592 0.000000 -1.932551
v -5.050000 0.000000 0.000000
v -4.665592 0.000000 1.932552
v -3.570889 0.000000 3.570889
v -1.932552 0.000000 4.665592
v -0.000001 0.000000 5.050000
v 1.932550 0.000000 4.665592
v 3.570889 0.000000 3.570890
v 4.665592 0.000000 1.932552
v 5.050000 0.000000 -0.000000
v 4.665591 0.000000 -1.932552
v 3.570888 0.000000 -3.570890
v 1.932549 0.000000 -4.665593
vn 0.0000 1.0000 0.0000
usemtl None
s off
f 2//1 3//1 4//1 5//1 6//1 7//1 8//1 9//1 10//1 11//1 12//1 13//1 14//1 15//1 16//1 1//1
