# Blender v2.79 (sub 0) OBJ File: ''
# www.blender.org
mtllib HAMMER_HITBOX.mtl
o Circle
v -1.148050 0.000000 -2.771640
v -2.121320 0.000000 -2.121320
v -2.771640 0.000000 -1.148050
v -3.000000 0.000000 0.000000
v -2.771640 -0.000000 1.148050
v -2.121320 -0.000000 2.121320
v -1.148050 -0.000000 2.771640
v 0.000000 -0.000000 3.000000
v 1.148050 -0.000000 2.771640
v 2.121320 -0.000000 2.121320
v 2.771640 -0.000000 1.148050
v 3.000000 0.000000 0.000000
v 2.771640 0.000000 -1.148050
v 2.121320 0.000000 -2.121320
v 1.148050 0.000000 -2.771640
v 0.000000 0.000000 -3.000000
vn 0.0000 1.0000 0.0000
usemtl None
s 1
f 1//1 2//1 3//1 4//1 5//1 6//1 7//1 8//1 9//1 10//1 11//1 12//1 13//1 14//1 15//1 16//1
